<?xml version="1.0" standalone="no"?>
<!DOCTYPE svg PUBLIC "-//W3C//DTD SVG 20010904//EN"
 "http://www.w3.org/TR/2001/REC-SVG-20010904/DTD/svg10.dtd">
<svg version="1.0" xmlns="http://www.w3.org/2000/svg"
 width="794.000000pt" height="794.000000pt" viewBox="0 0 794.000000 794.000000"
 preserveAspectRatio="xMidYMid meet">
<metadata>
Created by potrace 1.14, written by Peter Selinger 2001-2017
</metadata>
<g transform="translate(0.000000,794.000000) scale(0.100000,-0.100000)"
fill="#000000" stroke="none">
<path d="M6828 7753 c7 -3 16 -2 19 1 4 3 -2 6 -13 5 -11 0 -14 -3 -6 -6z"/>
<path d="M6865 7732 c6 -4 12 -20 13 -36 2 -24 0 -27 -13 -16 -10 8 -23 9 -42
3 -19 -7 -36 -6 -53 3 -54 26 -124 34 -244 25 -72 -5 -121 -13 -126 -21 -4 -7
-49 -13 -121 -17 -63 -3 -116 -8 -119 -12 -9 -12 -61 -31 -84 -31 -12 0 -31
-7 -42 -15 -22 -16 -80 -20 -89 -5 -12 19 -30 10 -55 -28 -52 -79 -82 -112
-103 -113 -20 -1 -20 -2 3 -8 25 -7 25 -7 2 -13 -15 -4 -20 -11 -16 -22 3 -9
1 -16 -5 -16 -6 0 -11 5 -11 10 0 20 -26 9 -42 -17 -9 -16 -35 -47 -57 -71
-21 -23 -44 -59 -49 -80 -9 -35 -10 -33 -11 32 -1 98 -17 75 -52 -76 -16 -68
-33 -136 -38 -153 l-9 -30 -2 35 c-3 34 -3 34 -10 -10 -27 -157 -30 -191 -22
-251 9 -63 10 -63 12 -19 2 25 7 -9 11 -75 8 -145 2 -218 -18 -211 -11 5 -11
1 -2 -15 6 -12 14 -60 19 -108 6 -67 8 -75 9 -36 1 28 4 77 6 110 2 33 7 108
11 168 3 59 10 107 15 107 5 0 9 -12 9 -27 0 -16 5 -163 10 -328 11 -356 13
-643 5 -705 -4 -37 -4 -41 5 -21 14 33 27 17 39 -46 6 -29 17 -68 26 -89 8
-20 15 -44 15 -53 0 -9 11 -38 23 -66 27 -56 25 -75 -6 -76 -28 0 35 -20 178
-54 60 -15 118 -30 129 -35 43 -15 -41 -25 -224 -25 -172 0 -188 -2 -225 -22
-22 -12 -52 -27 -67 -34 -16 -6 -28 -14 -28 -19 0 -4 -13 -13 -30 -20 -16 -7
-30 -16 -30 -21 0 -4 -9 -10 -19 -14 -11 -3 -23 -14 -26 -24 -7 -22 -45 -68
-45 -55 0 13 -39 36 -50 29 -5 -3 -2 -21 6 -40 8 -21 10 -35 4 -35 -5 0 -10
-12 -10 -27 0 -45 -12 -103 -20 -98 -4 2 -15 -12 -25 -33 -10 -20 -24 -48 -30
-62 -7 -14 -13 -37 -13 -52 0 -15 -9 -51 -20 -80 -11 -29 -25 -89 -32 -133 -6
-44 -20 -102 -29 -130 -27 -72 -39 -190 -47 -433 -6 -170 -10 -217 -22 -228
-12 -12 -13 -22 -5 -48 7 -24 6 -73 -3 -167 -15 -154 -34 -527 -34 -675 0 -81
-6 -120 -29 -200 -27 -93 -35 -133 -60 -294 -6 -36 -17 -108 -26 -160 -20
-127 -42 -307 -50 -405 -10 -125 -23 -184 -47 -218 -13 -18 -48 -79 -78 -137
l-55 -105 -50 -12 c-27 -7 -55 -20 -61 -28 -7 -9 -17 -45 -24 -81 -12 -65 -13
-66 -41 -60 -45 9 -73 -8 -109 -63 -22 -35 -41 -53 -59 -56 -46 -10 -89 -25
-167 -61 -57 -27 -80 -44 -96 -70 -20 -33 -41 -42 -66 -26 -9 7 -12 265 -12
1243 0 679 -3 1276 -7 1327 -5 72 -10 95 -22 100 -9 3 -50 32 -93 64 -42 32
-88 63 -102 70 -14 6 -26 14 -26 18 0 8 -39 23 -52 21 -5 -1 -8 4 -8 9 0 6 -7
10 -16 10 -8 0 -13 4 -9 9 3 5 1 12 -4 16 -6 3 -260 7 -565 8 -305 1 -558 5
-562 9 -3 4 5 31 18 60 36 76 51 118 46 124 -3 2 -15 -20 -27 -50 -25 -59 -69
-116 -92 -116 -8 0 -25 23 -38 50 -14 27 -28 45 -32 39 -6 -11 -19 59 -25 138
-4 61 -34 85 -150 117 -89 26 -101 27 -162 16 -36 -6 -73 -15 -81 -19 -9 -5
-35 -11 -59 -15 -34 -4 -42 -2 -42 10 0 29 21 56 38 49 13 -5 14 -3 6 5 -18
18 -54 2 -65 -28 -25 -63 15 -231 78 -334 13 -21 23 -40 23 -43 0 -3 -34 -5
-75 -5 -88 0 -82 -10 -89 150 -4 112 -20 257 -31 303 -7 26 -25 38 -25 16 0
-5 -4 -8 -9 -5 -4 3 -11 36 -15 73 -9 97 -22 136 -48 148 -19 8 -24 19 -26 63
-2 28 -7 52 -13 52 -5 0 -9 18 -9 40 0 22 -4 40 -10 40 -5 0 -10 18 -10 40 0
33 -3 40 -20 40 -17 0 -20 7 -20 40 l0 40 -40 0 -40 0 0 -40 c0 -33 -3 -40
-20 -40 -19 0 -20 -7 -20 -120 0 -100 -2 -120 -15 -120 -11 0 -15 -12 -15 -47
0 -49 -22 -127 -43 -151 -16 -20 -27 -115 -14 -124 6 -4 -1 -10 -16 -13 -32
-8 -35 -21 -7 -28 28 -7 25 -26 -5 -37 -20 -8 -25 -17 -26 -47 -1 -21 -1 -43
0 -50 1 -6 -4 -15 -11 -20 -7 -4 -168 -8 -358 -9 -257 0 -381 -4 -484 -17 -77
-9 -142 -14 -144 -12 -3 3 5 34 17 70 28 87 26 117 -3 38 -13 -34 -31 -74 -40
-88 -17 -25 -36 -33 -36 -15 0 6 -6 10 -12 10 -19 1 -43 39 -59 92 -8 29 -19
48 -28 48 -8 0 -25 10 -38 22 l-23 21 0 -826 0 -826 580 -3 c447 -2 582 -6
592 -16 9 -9 12 -136 11 -572 0 -308 -4 -614 -8 -680 l-7 -119 -67 -32 c-51
-25 -88 -55 -163 -130 -87 -90 -99 -106 -128 -181 -27 -70 -33 -100 -38 -208
l-7 -125 -382 -3 -383 -2 0 -170 0 -170 3970 0 3970 0 0 170 0 170 -257 -6
c-142 -4 -338 -3 -435 1 l-178 7 0 27 c0 14 4 42 10 61 5 19 15 73 21 120 6
47 28 139 50 206 21 66 50 169 63 230 14 60 37 161 51 224 14 63 35 158 46
210 51 234 69 323 94 440 14 69 36 166 49 215 13 50 31 129 41 178 10 48 21
87 26 87 8 0 98 -182 129 -259 10 -26 26 -114 35 -197 31 -270 99 -599 195
-939 l59 -210 0 1983 c1 1126 -3 1982 -8 1982 -5 0 -11 13 -14 29 -6 30 -31
62 -98 130 -46 45 -55 52 -104 75 -22 10 -52 25 -67 33 -14 7 -31 13 -37 13
-7 0 -17 4 -24 10 -7 5 -46 27 -87 48 -79 39 -99 69 -45 65 30 -2 30 -2 5 8
-101 44 -115 55 -148 112 -19 32 -33 60 -30 62 3 3 33 -7 67 -21 37 -14 77
-24 97 -22 l34 3 -28 30 c-62 69 -110 156 -148 269 -28 82 -30 130 -7 182 9
22 26 72 38 112 12 40 26 73 31 73 5 0 13 -18 18 -40 13 -55 23 -52 23 7 -2
181 6 461 12 471 10 15 20 -28 28 -109 8 -83 13 -73 13 23 0 48 4 87 8 87 5 0
25 -19 46 -41 40 -45 52 -46 42 -2 -6 20 -9 24 -16 13 -11 -18 -14 -15 -44 44
-24 48 -25 66 -17 264 2 64 21 21 22 -51 1 -40 4 -83 8 -97 7 -24 8 -23 20 15
7 22 17 90 22 150 6 69 15 114 23 120 11 8 10 27 -6 104 -30 148 -73 237 -109
226 -14 -5 -16 -1 -12 15 4 16 -4 30 -31 54 -20 19 -36 41 -36 50 0 9 -5 16
-11 16 -6 0 -22 14 -36 30 -13 17 -32 30 -41 30 -11 0 -13 3 -6 8 8 5 8 19 0
52 -8 34 -16 46 -32 48 -15 2 -24 12 -28 33 -3 16 -10 29 -16 29 -16 0 -85 82
-82 98 2 8 -1 11 -6 8 -6 -3 -28 11 -50 31 -22 21 -52 47 -66 58 -15 11 -33
26 -41 33 -20 18 -27 15 -20 -8 5 -17 2 -20 -24 -20 -17 0 -31 3 -31 8 0 13
14 29 30 34 11 3 5 10 -17 21 -32 17 -57 23 -38 9z m672 -964 c-3 -8 -6 -5 -6
6 -1 11 2 17 5 13 3 -3 4 -12 1 -19z m-4 -143 c-3 -9 -8 -14 -10 -11 -3 3 -2
9 2 15 9 16 15 13 8 -4z m-1780 -175 c17 -38 35 -70 40 -70 4 0 5 9 2 20 -3
11 -3 20 2 20 24 -1 73 -118 73 -175 0 -20 -12 -48 -32 -76 l-32 -44 -7 30
c-7 30 -7 30 -8 3 0 -15 -5 -30 -11 -33 -5 -3 -10 -17 -10 -30 0 -13 -4 -27
-10 -30 -5 -3 -10 -12 -10 -18 0 -16 50 39 80 88 13 22 30 46 38 54 18 18 22
11 62 -97 23 -65 30 -100 30 -159 0 -165 -71 -476 -113 -489 -29 -9 -12 -17
22 -9 20 4 28 11 24 21 -3 7 2 17 11 20 9 4 34 31 55 61 l39 54 16 -23 c16
-23 23 -118 9 -118 -5 0 -8 -15 -9 -33 0 -17 -9 -58 -19 -90 -14 -46 -23 -59
-44 -64 -35 -9 -158 14 -196 35 -27 16 -31 25 -41 97 -20 136 -28 336 -15 344
9 6 9 15 1 35 -12 34 -13 420 0 391 5 -11 12 -42 17 -70 l8 -50 3 73 c3 64 5
72 22 72 22 0 25 12 10 41 -8 13 -7 25 0 39 9 16 7 26 -9 47 -12 14 -21 32
-21 40 0 7 -9 32 -21 55 -21 42 -20 108 2 108 6 0 25 -31 42 -70z m-37 -85 c7
-30 -2 -59 -16 -50 -13 8 -13 75 0 75 5 0 12 -11 16 -25z m-1 -115 c-5 -8 -11
-8 -17 -2 -6 6 -7 16 -3 22 5 8 11 8 17 2 6 -6 7 -16 3 -22z m329 -608 c-7
-32 -24 -45 -24 -17 0 16 22 57 27 51 2 -1 0 -17 -3 -34z m-367 -204 c-2 -13
-4 -3 -4 22 0 25 2 35 4 23 2 -13 2 -33 0 -45z m1640 -20 c-3 -8 -6 -5 -6 6
-1 11 2 17 5 13 3 -3 4 -12 1 -19z m101 -126 c29 -30 28 -36 -5 -27 -37 9 -53
23 -53 47 0 10 -9 28 -20 40 -10 12 -17 25 -14 30 3 5 20 -8 37 -29 18 -21 42
-48 55 -61z m-1334 32 c17 -44 -1 -67 -45 -59 -32 6 -32 10 -4 44 30 35 40 38
49 15z m914 -279 c-3 -3 -9 2 -12 12 -6 14 -5 15 5 6 7 -7 10 -15 7 -18z m322
-2 c87 -38 80 -57 -26 -69 l-54 -7 0 52 c0 28 5 51 10 51 6 0 37 -12 70 -27z
m-189 -40 c0 -5 2 -16 4 -25 2 -10 -1 -20 -6 -24 -5 -3 -9 3 -9 13 0 11 -5 24
-12 31 -9 9 -8 12 5 12 9 0 17 -3 18 -7z m-5301 -1003 c0 -11 -4 -20 -10 -20
-5 0 -10 9 -10 20 0 11 5 20 10 20 6 0 10 -9 10 -20z m-740 -126 c173 -9 431
-42 457 -60 28 -18 29 -26 3 -49 -19 -17 -26 -18 -98 -6 -42 7 -151 15 -241
18 -145 5 -164 8 -168 23 -7 25 -87 47 -108 30 -10 -9 -40 -10 -112 -4 -54 4
-147 7 -208 5 -60 -1 -135 1 -165 4 l-55 7 40 14 c24 9 108 18 205 23 161 8
212 8 450 -5z m3943 -301 c-1 -27 -4 -167 -8 -313 -3 -146 -10 -278 -15 -295
-5 -16 -9 -48 -9 -70 1 -77 -14 -215 -22 -215 -12 0 -3 658 11 788 11 103 23
152 37 152 5 0 7 -21 6 -47z m-2322 -1183 c11 -16 8 -1425 -3 -1435 -3 -4 -48
-2 -100 4 -114 14 -397 30 -660 38 -165 5 -200 9 -212 22 -13 14 -15 111 -17
689 -1 402 1 676 7 682 13 13 135 16 587 15 333 0 389 -2 398 -15z"/>
<path d="M5480 7339 c0 -5 5 -7 10 -4 6 3 10 8 10 11 0 2 -4 4 -10 4 -5 0 -10
-5 -10 -11z"/>
<path d="M5457 7274 c-4 -4 -7 -19 -6 -33 l0 -26 10 24 c10 26 8 47 -4 35z"/>
<path d="M5425 7108 c-3 -24 -13 -78 -22 -122 -11 -54 -12 -80 -5 -85 6 -4 15
-36 19 -71 8 -57 10 -40 15 125 4 104 5 191 3 193 -1 2 -6 -16 -10 -40z"/>
<path d="M5366 6885 c-3 -9 -6 -22 -5 -28 0 -7 5 -1 10 12 5 13 8 26 5 28 -2
2 -6 -3 -10 -12z"/>
<path d="M5335 6790 c-4 -12 -5 -24 -2 -27 3 -2 8 5 12 17 4 12 5 24 2 27 -3
2 -8 -5 -12 -17z"/>
<path d="M7519 6435 c-3 -5 0 -30 7 -55 7 -27 12 -35 12 -20 -1 38 -13 86 -19
75z"/>
<path d="M5503 5865 c0 -192 1 -223 8 -153 5 49 5 157 0 240 l-8 153 0 -240z"/>
<path d="M7416 5654 c-9 -8 -16 -30 -16 -47 0 -39 14 -26 28 26 12 41 10 44
-12 21z"/>
<path d="M5542 5580 c0 -14 2 -19 5 -12 2 6 2 18 0 25 -3 6 -5 1 -5 -13z"/>
<path d="M5525 5521 c-3 -11 -12 -20 -18 -18 -7 1 -13 -14 -15 -38 l-2 -40 26
53 c14 29 24 56 21 58 -3 3 -8 -4 -12 -15z"/>
<path d="M32 4916 c-31 -30 -32 -33 -32 -119 l0 -87 80 0 c89 0 108 15 30 22
-28 3 -53 8 -57 12 -4 3 -8 25 -9 47 -1 22 -6 45 -12 51 -12 12 16 68 34 68 6
0 19 -21 29 -46 9 -25 19 -43 21 -41 6 5 -38 127 -45 126 -4 -1 -21 -15 -39
-33z"/>
<path d="M4934 4145 c0 -55 1 -76 3 -47 2 29 2 74 0 100 -2 26 -3 2 -3 -53z"/>
<path d="M1948 4150 c-37 -5 -75 -13 -85 -20 -14 -9 -6 -10 37 -4 30 3 109 12
175 19 l120 12 -90 0 c-49 0 -120 -3 -157 -7z"/>
<path d="M0 4116 c0 -13 13 -16 73 -15 71 1 72 2 22 9 -28 4 -61 10 -73 14
-16 6 -22 3 -22 -8z"/>
<path d="M4941 4004 c0 -11 3 -14 6 -6 3 7 2 16 -1 19 -3 4 -6 -2 -5 -13z"/>
</g>
</svg>
